%TF.GenerationSoftware,KiCad,Pcbnew,10.0.3*%
%TF.CreationDate,2026-05-17T20:37:48+01:00*%
%TF.ProjectId,version finale,76657273-696f-46e2-9066-696e616c652e,rev?*%
%TF.SameCoordinates,Original*%
%TF.FileFunction,Soldermask,Top*%
%TF.FilePolarity,Negative*%
%FSLAX46Y46*%
G04 Gerber Fmt 4.6, Leading zero omitted, Abs format (unit mm)*
G04 Created by KiCad (PCBNEW 10.0.3) date 2026-05-17 20:37:48*
%MOMM*%
%LPD*%
G01*
G04 APERTURE LIST*
G04 Aperture macros list*
%AMRoundRect*
0 Rectangle with rounded corners*
0 $1 Rounding radius*
0 $2 $3 $4 $5 $6 $7 $8 $9 X,Y pos of 4 corners*
0 Add a 4 corners polygon primitive as box body*
4,1,4,$2,$3,$4,$5,$6,$7,$8,$9,$2,$3,0*
0 Add four circle primitives for the rounded corners*
1,1,$1+$1,$2,$3*
1,1,$1+$1,$4,$5*
1,1,$1+$1,$6,$7*
1,1,$1+$1,$8,$9*
0 Add four rect primitives between the rounded corners*
20,1,$1+$1,$2,$3,$4,$5,0*
20,1,$1+$1,$4,$5,$6,$7,0*
20,1,$1+$1,$6,$7,$8,$9,0*
20,1,$1+$1,$8,$9,$2,$3,0*%
G04 Aperture macros list end*
%ADD10C,1.600000*%
%ADD11C,1.500000*%
%ADD12RoundRect,0.250000X-0.550000X-0.550000X0.550000X-0.550000X0.550000X0.550000X-0.550000X0.550000X0*%
%ADD13R,1.700000X1.700000*%
%ADD14C,1.700000*%
%ADD15R,1.050000X1.500000*%
%ADD16O,1.050000X1.500000*%
%ADD17RoundRect,0.250001X-1.149999X1.149999X-1.149999X-1.149999X1.149999X-1.149999X1.149999X1.149999X0*%
%ADD18C,2.800000*%
%ADD19RoundRect,0.250000X0.550000X0.550000X-0.550000X0.550000X-0.550000X-0.550000X0.550000X-0.550000X0*%
%ADD20RoundRect,0.250000X0.550000X-0.550000X0.550000X0.550000X-0.550000X0.550000X-0.550000X-0.550000X0*%
%ADD21RoundRect,0.250000X-0.550000X0.550000X-0.550000X-0.550000X0.550000X-0.550000X0.550000X0.550000X0*%
%ADD22RoundRect,0.250001X-1.149999X-1.149999X1.149999X-1.149999X1.149999X1.149999X-1.149999X1.149999X0*%
G04 APERTURE END LIST*
D10*
%TO.C,R_Filter3*%
X125730000Y-139700000D03*
X133350000Y-139700000D03*
%TD*%
D11*
%TO.C,C_Filter3*%
X116840000Y-139700000D03*
X121840000Y-139700000D03*
%TD*%
D10*
%TO.C,R_PU_PMOS1*%
X170500000Y-83510000D03*
X170500000Y-75890000D03*
%TD*%
D11*
%TO.C,C7*%
X94314000Y-116538000D03*
X94314000Y-111538000D03*
%TD*%
D12*
%TO.C,COUT*%
X178500000Y-68000000D03*
D10*
X181000000Y-68000000D03*
%TD*%
%TO.C,R_Filter2*%
X127673200Y-88766600D03*
X135293200Y-88766600D03*
%TD*%
D13*
%TO.C,pH*%
X175006000Y-144780000D03*
D14*
X177546000Y-144780000D03*
X180086000Y-144780000D03*
%TD*%
D10*
%TO.C,R_PU_Temp*%
X88280000Y-146870000D03*
X88280000Y-139250000D03*
%TD*%
D13*
%TO.C,DIO2*%
X213540000Y-105600000D03*
D14*
X213540000Y-108140000D03*
%TD*%
D10*
%TO.C,R_Guard*%
X154046600Y-98700000D03*
X154046600Y-106320000D03*
%TD*%
D13*
%TO.C,TDS1*%
X123698000Y-144780000D03*
D14*
X126238000Y-144780000D03*
X128778000Y-144780000D03*
%TD*%
D13*
%TO.C,Booster_IN*%
X192509752Y-77745249D03*
D14*
X195049752Y-77745249D03*
X197589752Y-77745249D03*
X200129752Y-77745249D03*
%TD*%
D10*
%TO.C,R_Haut1*%
X170180000Y-132588000D03*
X170180000Y-124968000D03*
%TD*%
D11*
%TO.C,C10*%
X180340000Y-134700000D03*
X180340000Y-139700000D03*
%TD*%
D10*
%TO.C,R_SDA1*%
X136435200Y-123242600D03*
X144055200Y-123242600D03*
%TD*%
D15*
%TO.C,R\u00E9gulateur_3.3V*%
X168460000Y-68000000D03*
D16*
X169730000Y-68000000D03*
X171000000Y-68000000D03*
%TD*%
D10*
%TO.C,R_PD_BASE1*%
X170500000Y-95510000D03*
X170500000Y-87890000D03*
%TD*%
%TO.C,R_Haut2*%
X200620000Y-132160000D03*
X208240000Y-132160000D03*
%TD*%
%TO.C,R_SCL1*%
X136435200Y-118242600D03*
X144055200Y-118242600D03*
%TD*%
%TO.C,R_Filter1*%
X175990000Y-112380000D03*
X183610000Y-112380000D03*
%TD*%
D13*
%TO.C,Turbidity*%
X195580000Y-144780000D03*
D14*
X193040000Y-144780000D03*
X190500000Y-144780000D03*
%TD*%
D15*
%TO.C,Controle_booster1*%
X177546000Y-102214000D03*
D16*
X178816000Y-102214000D03*
X180086000Y-102214000D03*
%TD*%
D11*
%TO.C,C_Filter2*%
X200740000Y-137160000D03*
X205740000Y-137160000D03*
%TD*%
D17*
%TO.C,Batt_IN*%
X83820000Y-115140000D03*
D18*
X83820000Y-120140000D03*
%TD*%
D11*
%TO.C,C2*%
X186000000Y-65000000D03*
X186000000Y-70000000D03*
%TD*%
D13*
%TO.C,Lora_L1*%
X231620000Y-113600000D03*
D14*
X229080000Y-113600000D03*
X226540000Y-113600000D03*
X224000000Y-113600000D03*
X221460000Y-113600000D03*
X218920000Y-113600000D03*
X216380000Y-113600000D03*
X213840000Y-113600000D03*
%TD*%
D13*
%TO.C,Booster_OUT*%
X192509752Y-107745249D03*
D14*
X195049752Y-107745249D03*
X197589752Y-107745249D03*
X200129752Y-107745249D03*
%TD*%
D11*
%TO.C,C_Temp*%
X64280000Y-145560000D03*
X64280000Y-140560000D03*
%TD*%
%TO.C,C9*%
X176500000Y-77000000D03*
X181500000Y-77000000D03*
%TD*%
D12*
%TO.C,D_Zener3*%
X136398000Y-129286000D03*
D10*
X144018000Y-129286000D03*
%TD*%
D12*
%TO.C,CIN*%
X158500000Y-68000000D03*
D10*
X161000000Y-68000000D03*
%TD*%
D19*
%TO.C,C11*%
X175260000Y-137160000D03*
D10*
X172760000Y-137160000D03*
%TD*%
D20*
%TO.C,D_Zener2*%
X189740000Y-138938000D03*
D10*
X189740000Y-131318000D03*
%TD*%
D11*
%TO.C,C_Filter1*%
X177800000Y-119380000D03*
X182800000Y-119380000D03*
%TD*%
D12*
%TO.C,C_Power_ESP*%
X158500000Y-79700000D03*
D10*
X161000000Y-79700000D03*
%TD*%
D12*
%TO.C,Booster_Bulk1*%
X178500000Y-85000000D03*
D10*
X181000000Y-85000000D03*
%TD*%
D13*
%TO.C,OLED*%
X102830000Y-144770000D03*
D14*
X105370000Y-144770000D03*
X107910000Y-144770000D03*
X110450000Y-144770000D03*
%TD*%
D12*
%TO.C,C8*%
X178500000Y-94000000D03*
D10*
X181000000Y-94000000D03*
%TD*%
D21*
%TO.C,D_Zener1*%
X171800000Y-112380000D03*
D10*
X171800000Y-120000000D03*
%TD*%
D11*
%TO.C,C4*%
X213040000Y-98600000D03*
X218040000Y-98600000D03*
%TD*%
%TO.C,C_OLED*%
X106950000Y-140770000D03*
X101950000Y-140770000D03*
%TD*%
%TO.C,C5*%
X112365000Y-96355000D03*
X112365000Y-91355000D03*
%TD*%
D13*
%TO.C,GY-521*%
X99314000Y-110998000D03*
D14*
X99314000Y-113538000D03*
X99314000Y-116078000D03*
X99314000Y-118618000D03*
X99314000Y-121158000D03*
X99314000Y-123698000D03*
X99314000Y-126238000D03*
X99314000Y-128778000D03*
%TD*%
D13*
%TO.C,J_Left_ESP32*%
X123293200Y-75666600D03*
D14*
X123293200Y-78206600D03*
X123293200Y-80746600D03*
X123293200Y-83286600D03*
X123293200Y-85826600D03*
X123293200Y-88366600D03*
X123293200Y-90906600D03*
X123293200Y-93446600D03*
X123293200Y-95986600D03*
X123293200Y-98526600D03*
X123293200Y-101066600D03*
X123293200Y-103606600D03*
X123293200Y-106146600D03*
X123293200Y-108686600D03*
X123293200Y-111226600D03*
X123293200Y-113766600D03*
X123293200Y-116306600D03*
X123293200Y-118846600D03*
X123293200Y-121386600D03*
X123293200Y-123926600D03*
X123293200Y-126466600D03*
X123293200Y-129006600D03*
%TD*%
D10*
%TO.C,R_Bas2*%
X196240000Y-131350000D03*
X196240000Y-138970000D03*
%TD*%
D11*
%TO.C,C1*%
X152400000Y-63580000D03*
X152400000Y-68580000D03*
%TD*%
D13*
%TO.C,Batt_Lvl1*%
X117365000Y-83275000D03*
D14*
X117365000Y-85815000D03*
X117365000Y-88355000D03*
X117365000Y-90895000D03*
X117365000Y-93435000D03*
X117365000Y-95975000D03*
%TD*%
D15*
%TO.C,Controle_BS250*%
X158960000Y-90700000D03*
D16*
X160230000Y-90700000D03*
X161500000Y-90700000D03*
%TD*%
D13*
%TO.C,J_Right_ESP32*%
X148793200Y-75666600D03*
D14*
X148793200Y-78206600D03*
X148793200Y-80746600D03*
X148793200Y-83286600D03*
X148793200Y-85826600D03*
X148793200Y-88366600D03*
X148793200Y-90906600D03*
X148793200Y-93446600D03*
X148793200Y-95986600D03*
X148793200Y-98526600D03*
X148793200Y-101066600D03*
X148793200Y-103606600D03*
X148793200Y-106146600D03*
X148793200Y-108686600D03*
X148793200Y-111226600D03*
X148793200Y-113766600D03*
X148793200Y-116306600D03*
X148793200Y-118846600D03*
X148793200Y-121386600D03*
X148793200Y-123926600D03*
X148793200Y-126466600D03*
X148793200Y-129006600D03*
%TD*%
D10*
%TO.C,R_Bas1*%
X164084000Y-132588000D03*
X164084000Y-124968000D03*
%TD*%
D22*
%TO.C,Temp*%
X71280000Y-143060000D03*
D18*
X76280000Y-143060000D03*
X81280000Y-143060000D03*
%TD*%
D13*
%TO.C,Lora_R1*%
X231620000Y-139000000D03*
D14*
X229080000Y-139000000D03*
X226540000Y-139000000D03*
X224000000Y-139000000D03*
X221460000Y-139000000D03*
X218920000Y-139000000D03*
X216380000Y-139000000D03*
X213840000Y-139000000D03*
%TD*%
D12*
%TO.C,Bulk_LoRa*%
X220040000Y-106600000D03*
D10*
X222540000Y-106600000D03*
%TD*%
M02*
