M48
; DRILL file KiCad 10.0.3 date 2026-05-17T20:38:06
; FORMAT={-:-/ absolute / metric / decimal}
; #@! TF.CreationDate,2026-05-17T20:38:06+01:00
; #@! TF.GenerationSoftware,Kicad,Pcbnew,10.0.3
; #@! TF.FileFunction,Plated,1,2,PTH
FMAT,2
METRIC
; #@! TA.AperFunction,Plated,PTH,ViaDrill
T1C0.600
; #@! TA.AperFunction,Plated,PTH,ComponentDrill
T2C0.750
; #@! TA.AperFunction,Plated,PTH,ComponentDrill
T3C0.800
; #@! TA.AperFunction,Plated,PTH,ComponentDrill
T4C1.000
; #@! TA.AperFunction,Plated,PTH,ComponentDrill
T5C1.300
%
G90
G05
T1
X74.676Y-127.0
X80.264Y-108.204
X81.788Y-135.636
X88.9Y-89.408
X105.156Y-128.778
X106.172Y-74.676
X109.474Y-135.382
X109.982Y-127.508
X116.078Y-135.382
X128.27Y-109.474
X128.27Y-136.906
X129.032Y-66.548
X133.096Y-100.584
X134.62Y-107.696
X134.62Y-113.03
X135.382Y-66.04
X135.382Y-69.018
X135.382Y-93.98
X140.208Y-65.278
X140.208Y-69.018
X141.224Y-83.312
X142.24Y-75.692
X148.844Y-58.42
X151.2Y-100.33
X152.507Y-71.816
X153.416Y-115.316
X154.908Y-76.2
X155.956Y-89.408
X156.21Y-71.882
X157.226Y-102.108
X157.226Y-110.998
X164.592Y-79.756
X167.64Y-59.944
X177.292Y-128.778
X184.404Y-146.812
X193.04Y-82.296
X207.772Y-146.812
X219.456Y-123.952
X230.632Y-146.812
X231.648Y-119.38
T2
X64.28Y-140.56
X64.28Y-145.56
X94.314Y-111.538
X94.314Y-116.538
X101.95Y-140.77
X106.95Y-140.77
X112.365Y-91.355
X112.365Y-96.355
X116.84Y-139.7
X121.84Y-139.7
X152.4Y-63.58
X152.4Y-68.58
X158.96Y-90.7
X160.23Y-90.7
X161.5Y-90.7
X168.46Y-68.0
X169.73Y-68.0
X171.0Y-68.0
X176.5Y-77.0
X177.546Y-102.214
X177.8Y-119.38
X178.816Y-102.214
X180.086Y-102.214
X180.34Y-134.7
X180.34Y-139.7
X181.5Y-77.0
X182.8Y-119.38
X186.0Y-65.0
X186.0Y-70.0
X200.74Y-137.16
X205.74Y-137.16
X213.04Y-98.6
X218.04Y-98.6
T3
X88.28Y-139.25
X88.28Y-146.87
X125.73Y-139.7
X127.673Y-88.767
X133.35Y-139.7
X135.293Y-88.767
X136.398Y-129.286
X136.435Y-118.243
X136.435Y-123.243
X144.018Y-129.286
X144.055Y-118.243
X144.055Y-123.243
X154.047Y-98.7
X154.047Y-106.32
X158.5Y-68.0
X158.5Y-79.7
X161.0Y-68.0
X161.0Y-79.7
X164.084Y-124.968
X164.084Y-132.588
X170.18Y-124.968
X170.18Y-132.588
X170.5Y-75.89
X170.5Y-83.51
X170.5Y-87.89
X170.5Y-95.51
X171.8Y-112.38
X171.8Y-120.0
X172.76Y-137.16
X175.26Y-137.16
X175.99Y-112.38
X178.5Y-68.0
X178.5Y-85.0
X178.5Y-94.0
X181.0Y-68.0
X181.0Y-85.0
X181.0Y-94.0
X183.61Y-112.38
X189.74Y-131.318
X189.74Y-138.938
X196.24Y-131.35
X196.24Y-138.97
X200.62Y-132.16
X208.24Y-132.16
X220.04Y-106.6
X222.54Y-106.6
T4
X99.314Y-110.998
X99.314Y-113.538
X99.314Y-116.078
X99.314Y-118.618
X99.314Y-121.158
X99.314Y-123.698
X99.314Y-126.238
X99.314Y-128.778
X102.83Y-144.77
X105.37Y-144.77
X107.91Y-144.77
X110.45Y-144.77
X117.365Y-83.275
X117.365Y-85.815
X117.365Y-88.355
X117.365Y-90.895
X117.365Y-93.435
X117.365Y-95.975
X123.293Y-75.667
X123.293Y-78.207
X123.293Y-80.747
X123.293Y-83.287
X123.293Y-85.827
X123.293Y-88.367
X123.293Y-90.907
X123.293Y-93.447
X123.293Y-95.987
X123.293Y-98.527
X123.293Y-101.067
X123.293Y-103.607
X123.293Y-106.147
X123.293Y-108.687
X123.293Y-111.227
X123.293Y-113.767
X123.293Y-116.307
X123.293Y-118.847
X123.293Y-121.387
X123.293Y-123.927
X123.293Y-126.467
X123.293Y-129.007
X123.698Y-144.78
X126.238Y-144.78
X128.778Y-144.78
X148.793Y-75.667
X148.793Y-78.207
X148.793Y-80.747
X148.793Y-83.287
X148.793Y-85.827
X148.793Y-88.367
X148.793Y-90.907
X148.793Y-93.447
X148.793Y-95.987
X148.793Y-98.527
X148.793Y-101.067
X148.793Y-103.607
X148.793Y-106.147
X148.793Y-108.687
X148.793Y-111.227
X148.793Y-113.767
X148.793Y-116.307
X148.793Y-118.847
X148.793Y-121.387
X148.793Y-123.927
X148.793Y-126.467
X148.793Y-129.007
X175.006Y-144.78
X177.546Y-144.78
X180.086Y-144.78
X190.5Y-144.78
X192.51Y-77.745
X192.51Y-107.745
X193.04Y-144.78
X195.05Y-77.745
X195.05Y-107.745
X195.58Y-144.78
X197.59Y-77.745
X197.59Y-107.745
X200.13Y-77.745
X200.13Y-107.745
X213.54Y-105.6
X213.54Y-108.14
X213.84Y-113.6
X213.84Y-139.0
X216.38Y-113.6
X216.38Y-139.0
X218.92Y-113.6
X218.92Y-139.0
X221.46Y-113.6
X221.46Y-139.0
X224.0Y-113.6
X224.0Y-139.0
X226.54Y-113.6
X226.54Y-139.0
X229.08Y-113.6
X229.08Y-139.0
X231.62Y-113.6
X231.62Y-139.0
T5
X71.28Y-143.06
X76.28Y-143.06
X81.28Y-143.06
X83.82Y-115.14
X83.82Y-120.14
M30
